<mxfile host="app.diagrams.net" modified="2022-01-20T11:33:50.313Z" agent="5.0 (Windows)" etag="o2Rhs4OyjwRJBuaXUKc3" version="16.0.3" type="github">
  <diagram id="mxGWfV9tBIiYg5eaF4Lv" name="Page-1">
    <mxGraphModel dx="782" dy="540" grid="1" gridSize="10" guides="1" tooltips="1" connect="1" arrows="1" fold="1" page="1" pageScale="1" pageWidth="827" pageHeight="1169" math="0" shadow="0">
      <root>
        <mxCell id="0" />
        <mxCell id="1" parent="0" />
        <mxCell id="f3xQXIGnD9KrdJ0zW6e2-2" value="" style="rounded=1;whiteSpace=wrap;html=1;fillColor=#f5f5f5;fontColor=#333333;strokeColor=#666666;shadow=1;" parent="1" vertex="1">
          <mxGeometry x="360" y="260" width="210" height="210" as="geometry" />
        </mxCell>
        <mxCell id="mJQxIG_6mOXv_xScDwaO-1" value="" style="rounded=1;whiteSpace=wrap;html=1;fillColor=none;dashed=1;" parent="1" vertex="1">
          <mxGeometry x="370" y="390" width="190" height="70" as="geometry" />
        </mxCell>
        <mxCell id="f3xQXIGnD9KrdJ0zW6e2-8" style="edgeStyle=orthogonalEdgeStyle;rounded=0;orthogonalLoop=1;jettySize=auto;html=1;exitX=0.5;exitY=0;exitDx=0;exitDy=0;entryX=0;entryY=0.5;entryDx=0;entryDy=0;endArrow=none;endFill=0;" parent="1" source="f3xQXIGnD9KrdJ0zW6e2-1" target="f3xQXIGnD9KrdJ0zW6e2-3" edge="1">
          <mxGeometry relative="1" as="geometry" />
        </mxCell>
        <mxCell id="f3xQXIGnD9KrdJ0zW6e2-9" style="edgeStyle=orthogonalEdgeStyle;rounded=0;orthogonalLoop=1;jettySize=auto;html=1;exitX=1;exitY=0.5;exitDx=0;exitDy=0;entryX=0;entryY=0.5;entryDx=0;entryDy=0;endArrow=none;endFill=0;" parent="1" source="f3xQXIGnD9KrdJ0zW6e2-1" target="f3xQXIGnD9KrdJ0zW6e2-4" edge="1">
          <mxGeometry relative="1" as="geometry" />
        </mxCell>
        <mxCell id="f3xQXIGnD9KrdJ0zW6e2-1" value="&lt;font style=&quot;font-size: 16px&quot;&gt;Nucleo&lt;/font&gt;" style="rounded=1;whiteSpace=wrap;html=1;fillColor=#dae8fc;strokeColor=#6c8ebf;shadow=1;" parent="1" vertex="1">
          <mxGeometry x="374" y="320" width="80" height="40" as="geometry" />
        </mxCell>
        <mxCell id="f3xQXIGnD9KrdJ0zW6e2-3" value="I2C connector" style="rounded=1;whiteSpace=wrap;html=1;fillColor=#d5e8d4;strokeColor=#82b366;shadow=1;" parent="1" vertex="1">
          <mxGeometry x="470" y="270" width="80" height="40" as="geometry" />
        </mxCell>
        <mxCell id="f3xQXIGnD9KrdJ0zW6e2-10" style="edgeStyle=orthogonalEdgeStyle;rounded=0;orthogonalLoop=1;jettySize=auto;html=1;exitX=0.5;exitY=1;exitDx=0;exitDy=0;entryX=0.5;entryY=0;entryDx=0;entryDy=0;endArrow=none;endFill=0;" parent="1" source="f3xQXIGnD9KrdJ0zW6e2-4" target="f3xQXIGnD9KrdJ0zW6e2-6" edge="1">
          <mxGeometry relative="1" as="geometry" />
        </mxCell>
        <mxCell id="f3xQXIGnD9KrdJ0zW6e2-4" value="CAN Tranciever" style="rounded=1;whiteSpace=wrap;html=1;fillColor=#d5e8d4;strokeColor=#82b366;shadow=1;" parent="1" vertex="1">
          <mxGeometry x="470" y="320" width="80" height="40" as="geometry" />
        </mxCell>
        <mxCell id="f3xQXIGnD9KrdJ0zW6e2-7" style="edgeStyle=orthogonalEdgeStyle;rounded=0;orthogonalLoop=1;jettySize=auto;html=1;entryX=0.5;entryY=1;entryDx=0;entryDy=0;exitX=0.5;exitY=0;exitDx=0;exitDy=0;endArrow=none;endFill=0;" parent="1" source="f3xQXIGnD9KrdJ0zW6e2-5" target="f3xQXIGnD9KrdJ0zW6e2-1" edge="1">
          <mxGeometry relative="1" as="geometry" />
        </mxCell>
        <mxCell id="f3xQXIGnD9KrdJ0zW6e2-5" value="PWR" style="rounded=1;whiteSpace=wrap;html=1;fillColor=#f8cecc;strokeColor=#b85450;shadow=1;" parent="1" vertex="1">
          <mxGeometry x="375" y="400" width="80" height="40" as="geometry" />
        </mxCell>
        <mxCell id="f3xQXIGnD9KrdJ0zW6e2-6" value="CAN" style="rounded=1;whiteSpace=wrap;html=1;fillColor=#d5e8d4;strokeColor=#82b366;shadow=1;" parent="1" vertex="1">
          <mxGeometry x="470" y="400" width="80" height="40" as="geometry" />
        </mxCell>
        <mxCell id="f3xQXIGnD9KrdJ0zW6e2-11" value="ECU BOARD" style="text;html=1;align=center;verticalAlign=middle;resizable=0;points=[];autosize=1;" parent="1" vertex="1">
          <mxGeometry x="369" y="270" width="90" height="20" as="geometry" />
        </mxCell>
        <mxCell id="mJQxIG_6mOXv_xScDwaO-2" value="Connector x2" style="text;html=1;align=center;verticalAlign=middle;resizable=0;points=[];autosize=1;" parent="1" vertex="1">
          <mxGeometry x="420" y="440" width="90" height="20" as="geometry" />
        </mxCell>
      </root>
    </mxGraphModel>
  </diagram>
</mxfile>
